<svg width="25" height="25" viewBox="0 0 25 25" fill="none" xmlns="http://www.w3.org/2000/svg">
<g id="Budget Insights Icon">
<path d="M4.53044 16.6678C4.79102 16.8174 5.01476 17.0121 5.1933 17.2371H8.56738V14.0806L6.96748 13.1236C6.61116 12.9105 6.50139 12.459 6.72229 12.1153C6.94324 11.7716 7.41101 11.6657 7.76748 11.8787L9.32649 12.8112L10.6854 11.9984C7.97497 8.41283 8.59744 3.33221 12.2053 0.464604C6.26237 -1.45611 0.0282269 2.8135 8.93426e-05 8.94559C-0.0145867 12.1976 1.77999 15.0882 4.53044 16.6678Z" fill="#B1B1B1"/>
<path d="M5.66804 18.7018H12.8543V20.3618H5.66804V18.7018Z" fill="#B1B1B1"/>
<path d="M10.0856 14.0806V17.2371H13.3188C13.4905 17.0185 13.7047 16.8312 13.9539 16.6896C14.6439 16.2978 15.2773 15.82 15.8387 15.273C14.2529 14.9285 12.8288 14.1677 11.6964 13.1164C11.6532 13.1434 11.342 13.3291 10.0856 14.0806Z" fill="#B1B1B1"/>
<path d="M17.7632 0.00235194C13.7826 0.00235194 10.5263 3.17573 10.5263 7.03294C10.5263 10.6611 13.4132 13.6655 17.1148 13.9861C21.3985 14.3553 25 11.0793 25 7.03294C25 3.1832 21.7536 0.00235194 17.7632 0.00235194ZM18.5233 10.2072V10.3603C18.5233 10.7648 18.1834 11.0927 17.7642 11.0927C17.345 11.0927 17.0051 10.7648 17.0051 10.3603V10.2901C16.6553 10.2309 16.3358 10.1046 15.9321 9.84981C15.5812 9.6284 15.4829 9.17453 15.7124 8.83604C15.9419 8.4975 16.4124 8.40268 16.7632 8.62405C17.1333 8.85762 17.2532 8.87583 17.759 8.87246C18.2474 8.86934 18.442 8.4995 18.48 8.2815C18.5141 8.08577 18.4758 7.82554 18.0996 7.69728C17.4693 7.48231 16.823 7.23565 16.3651 6.8892C15.3226 6.10031 15.6373 4.29848 17.0051 3.81898V3.71294C17.0051 3.30849 17.345 2.98059 17.7642 2.98059C18.1835 2.98059 18.5233 3.30849 18.5233 3.71294V3.75356C18.8974 3.85541 19.1986 4.03962 19.4055 4.24263C19.6995 4.53098 19.6955 4.99465 19.3966 5.27827C19.0978 5.56174 18.6175 5.55798 18.3236 5.27012C18.2812 5.23023 18.0474 5.04211 17.5411 5.18922C17.339 5.24795 17.2847 5.45018 17.2728 5.51077C17.2481 5.63722 17.2833 5.72247 17.3021 5.73672C17.5885 5.9534 18.1217 6.15128 18.6056 6.31631C20.6063 6.99857 20.3626 9.56576 18.5233 10.2072Z" fill="#B1B1B1"/>
<path d="M6.88262 22.7053C6.88262 23.9706 7.94962 25 9.26116 25C10.5727 25 11.6397 23.9706 11.6397 22.7053V21.8265H6.88262V22.7053Z" fill="#B1B1B1"/>
</g>
</svg>
