<svg width="25" height="25" viewBox="0 0 25 25" fill="none" xmlns="http://www.w3.org/2000/svg">
<g id="Debt Tracking Icon">
<path d="M14.5537 15.3372C18.8778 15.3372 22.3958 11.8971 22.3958 7.66863C22.3958 3.44019 18.8778 0 14.5537 0C10.2295 0 6.71157 3.44014 6.71157 7.66858C6.71157 11.897 10.2295 15.3372 14.5537 15.3372ZM12.0338 10.0616C12.2619 9.72331 12.7295 9.62835 13.0782 9.84975C13.5864 10.1722 13.778 10.2019 14.4485 10.1973C15.1029 10.1931 15.4827 9.71994 15.5585 9.28202C15.5954 9.06901 15.6096 8.54886 14.9451 8.32097C14.1657 8.05365 13.368 7.74812 12.813 7.32586C12.2581 6.9036 12.004 6.17464 12.1499 5.42358C12.3081 4.60936 12.8936 3.96121 13.6779 3.73205C13.685 3.73 13.6919 3.72835 13.699 3.7263V3.44882C13.699 3.04457 14.0368 2.71684 14.4535 2.71684C14.8702 2.71684 15.2081 3.04457 15.2081 3.44882V3.68018C15.7205 3.79886 16.0784 4.02631 16.2238 4.13167C16.5575 4.37376 16.6258 4.83242 16.3763 5.15625C16.1268 5.48009 15.654 5.54635 15.3202 5.30421C15.1656 5.19207 14.7383 4.95101 14.1131 5.13376C13.7479 5.24053 13.6531 5.59013 13.6328 5.6947C13.5929 5.9002 13.6377 6.09281 13.7443 6.17391C14.129 6.46661 14.8214 6.72578 15.448 6.94064C16.6034 7.33684 17.2458 8.37529 17.0467 9.5247C16.949 10.0887 16.6565 10.6119 16.2232 10.9981C15.928 11.2613 15.5844 11.4488 15.2081 11.556V11.8883C15.2081 12.2926 14.8702 12.6203 14.4535 12.6203C14.0368 12.6203 13.699 12.2926 13.699 11.8883V11.629C13.2111 11.5716 12.8016 11.4236 12.2521 11.0748C11.9034 10.8535 11.8056 10.3999 12.0338 10.0616Z" fill="#B1B1B1"/>
<path d="M2.47495 17.7967H0.754528C0.337827 17.7967 0 18.1245 0 18.5287V24.267C0 24.6712 0.337827 24.999 0.754528 24.999H2.475L2.47495 17.7967Z" fill="#B1B1B1"/>
<path d="M24.7787 17.7456C23.3645 16.3736 21.0634 16.3736 19.6492 17.7456L16.4626 20.8371C16.0882 21.2003 15.5803 21.4043 15.0508 21.4043H10.5461C10.1393 21.4043 9.78915 21.101 9.76998 20.7068C9.74956 20.2858 10.0953 19.9383 10.5247 19.9383H15.1035C16.0241 19.9383 16.8226 19.3025 16.9809 18.4227C17.0172 18.2206 17.0362 18.0129 17.0362 17.8009C17.0362 17.3959 16.698 17.0673 16.2806 17.0673H13.7717C12.9518 17.0673 12.1644 16.7065 11.3308 16.3244C10.4564 15.9237 9.55223 15.5094 8.49503 15.4411C7.57038 15.3814 6.64362 15.4796 5.74035 15.7326C4.77319 16.0036 4.07797 16.8371 3.99366 17.7996C3.99045 17.7993 3.98718 17.7993 3.98391 17.7991V24.9965L16.9833 25C17.877 25 18.7174 24.6623 19.3495 24.0491L24.7786 18.7822C25.0738 18.4961 25.0738 18.0319 24.7787 17.7456Z" fill="#B1B1B1"/>
</g>
</svg>
