<svg width="64" height="62" viewBox="0 0 64 62" fill="none" xmlns="http://www.w3.org/2000/svg">
<ellipse cx="32.3001" cy="30.9148" rx="31.5857" ry="30.4255" fill="#DCFAF8"/>
<path d="M32.8745 28.5684C33.4443 28.5684 33.9096 29.0155 33.9096 29.5644C33.9096 30.0652 34.3322 30.4711 34.8521 30.4711C35.3709 30.4711 35.7935 30.0652 35.7935 29.5644C35.7935 28.334 34.9614 27.2957 33.8158 26.9161V26.4016C33.8158 25.9019 33.3944 25.4936 32.8745 25.4936C32.3534 25.4936 31.932 25.9019 31.932 26.4016V26.9161C30.7864 27.2957 29.9567 28.334 29.9567 29.5644C29.9567 31.1161 31.2648 32.3762 32.8745 32.3762C33.4443 32.3762 33.9096 32.8244 33.9096 33.3733C33.9096 33.9233 33.4443 34.3704 32.8745 34.3704C32.3047 34.3704 31.8406 33.9233 31.8406 33.3733C31.8406 32.8724 31.418 32.4653 30.898 32.4653C30.3769 32.4653 29.9567 32.8724 29.9567 33.3733C29.9567 34.6036 30.7864 35.6407 31.932 36.0204V36.5349C31.932 37.0369 32.3534 37.444 32.8745 37.444C33.3944 37.444 33.8158 37.0369 33.8158 36.5349V36.0204C34.9614 35.6407 35.7935 34.6036 35.7935 33.3733C35.7935 31.8227 34.4842 30.5615 32.8745 30.5615C32.3047 30.5615 31.8406 30.1144 31.8406 29.5644C31.8406 29.0155 32.3047 28.5684 32.8745 28.5684ZM40.7673 36.5075C41.2291 36.7419 41.7977 36.5715 42.0398 36.1301C42.8233 34.7042 43.2364 33.092 43.2364 31.4682C43.2364 25.9659 38.5867 21.4881 32.8745 21.4881C27.1611 21.4881 22.5126 25.9659 22.5126 31.4682C22.5126 36.9717 27.1611 41.4495 32.8745 41.4495C34.5352 41.4495 36.1852 41.063 37.6465 40.3301C38.1083 40.1003 38.2875 39.5502 38.0477 39.1066C37.8079 38.6641 37.2393 38.488 36.7764 38.7201C35.5668 39.3284 34.2527 39.636 32.8745 39.636C28.1998 39.636 24.3953 35.9723 24.3953 31.4682C24.3953 26.9664 28.1998 23.3016 32.8745 23.3016C37.5492 23.3016 41.3537 26.9664 41.3537 31.4682C41.3537 32.7981 41.0142 34.1165 40.3756 35.2806C40.131 35.7242 40.3067 36.2731 40.7673 36.5075ZM32.8745 17.8564C30.1454 17.8564 27.4959 18.6088 25.2132 20.0302C24.7751 20.3023 24.6505 20.8638 24.933 21.2846C25.2167 21.7053 25.7972 21.8243 26.2364 21.5544C28.2117 20.324 30.5099 19.6723 32.8745 19.6723C39.6277 19.6723 45.1203 24.9642 45.1203 31.4682C45.1203 37.9734 39.6277 43.2654 32.8745 43.2654C26.1213 43.2654 20.6275 37.9734 20.6275 31.4682C20.6275 29.2122 21.2911 27.0179 22.5482 25.1254C22.8283 24.7024 22.7001 24.1409 22.2609 23.8711C21.8229 23.6012 21.2401 23.7247 20.9611 24.1466C19.5105 26.3318 18.7437 28.8657 18.7437 31.4682C18.7437 38.9751 25.0814 45.08 32.8745 45.08C40.6664 45.08 47.0053 38.9751 47.0053 31.4682C47.0053 23.9637 40.6664 17.8564 32.8745 17.8564Z" fill="#16DBCC"/>
</svg>
