<svg width="64" height="62" viewBox="0 0 64 62" fill="none" xmlns="http://www.w3.org/2000/svg">
<ellipse cx="32.3001" cy="31.0852" rx="31.5857" ry="30.4255" fill="#FFF5D9"/>
<path d="M38.2098 42.2699H23.3182C22.5212 42.2691 21.757 41.9638 21.1934 41.4209C20.6298 40.878 20.3128 40.1419 20.312 39.3742V30.8133C20.3128 30.0455 20.6298 29.3094 21.1934 28.7665C21.757 28.2236 22.5212 27.9183 23.3182 27.9175H38.2098C39.0068 27.9183 39.771 28.2236 40.3346 28.7665C40.8982 29.3094 41.2152 30.0455 41.216 30.8133V39.3742C41.2152 40.1419 40.8982 40.878 40.3346 41.4209C39.771 41.9638 39.0068 42.2691 38.2098 42.2699ZM23.3182 29.7326C23.0208 29.733 22.7356 29.8469 22.5253 30.0495C22.315 30.2521 22.1967 30.5268 22.1964 30.8133V39.3742C22.1967 39.6607 22.315 39.9353 22.5253 40.1379C22.7356 40.3405 23.0208 40.4545 23.3182 40.4548H38.2098C38.5072 40.4545 38.7924 40.3405 39.0027 40.1379C39.213 39.9353 39.3313 39.6607 39.3316 39.3742V30.8133C39.3313 30.5268 39.213 30.2521 39.0027 30.0495C38.7924 29.8469 38.5072 29.733 38.2098 29.7326H23.3182Z" fill="#FFBB38"/>
<path d="M42.432 37.3824H40.2737C40.0239 37.3824 39.7842 37.2867 39.6075 37.1165C39.4308 36.9463 39.3315 36.7155 39.3315 36.4748C39.3315 36.2341 39.4308 36.0032 39.6075 35.833C39.7842 35.6628 40.0239 35.5672 40.2737 35.5672H42.432C42.7292 35.5666 43.014 35.4525 43.2241 35.2499C43.4341 35.0474 43.5522 34.7729 43.5525 34.4866V25.9257C43.5524 25.6393 43.4343 25.3646 43.2243 25.162C43.0142 24.9593 42.7293 24.8451 42.432 24.8445H27.5404C27.243 24.8448 26.9578 24.9587 26.7475 25.1613C26.5372 25.3639 26.4189 25.6386 26.4186 25.9251V28.8245C26.4186 29.0652 26.3193 29.296 26.1426 29.4663C25.9659 29.6365 25.7263 29.7321 25.4764 29.7321C25.2265 29.7321 24.9868 29.6365 24.8101 29.4663C24.6334 29.296 24.5342 29.0652 24.5342 28.8245V25.9257C24.5348 25.1578 24.8518 24.4216 25.4154 23.8786C25.979 23.3355 26.7432 23.0301 27.5404 23.0293H42.432C43.2289 23.0304 43.9928 23.336 44.5562 23.879C45.1195 24.422 45.4363 25.158 45.4369 25.9257V34.4866C45.4361 35.2541 45.1193 35.99 44.556 36.5329C43.9926 37.0758 43.2288 37.3812 42.432 37.3824Z" fill="#FFBB38"/>
<path d="M40.2738 35.7831H21.2542C21.0043 35.7831 20.7647 35.6875 20.588 35.5173C20.4113 35.3471 20.312 35.1162 20.312 34.8755V31.8273C20.312 31.5866 20.4113 31.3557 20.588 31.1855C20.7647 31.0153 21.0043 30.9197 21.2542 30.9197H40.2738C40.5237 30.9197 40.7634 31.0153 40.9401 31.1855C41.1167 31.3557 41.216 31.5866 41.216 31.8273V34.8755C41.216 35.1162 41.1167 35.3471 40.9401 35.5173C40.7634 35.6875 40.5237 35.7831 40.2738 35.7831ZM22.1964 33.9679H39.3316V32.7348H22.1964V33.9679Z" fill="#FFBB38"/>
</svg>
