<svg width="25" height="25" viewBox="0 0 25 25" fill="none" xmlns="http://www.w3.org/2000/svg">
<path id="Reciept Management Icon" d="M5.76923 9.09113C5.76923 8.78974 5.87054 8.5007 6.05086 8.28758C6.23118 8.07447 6.47575 7.95474 6.73077 7.95474H18.2692C18.5242 7.95474 18.7688 8.07447 18.9491 8.28758C19.1295 8.5007 19.2308 8.78974 19.2308 9.09113C19.2308 9.39252 19.1295 9.68157 18.9491 9.89468C18.7688 10.1078 18.5242 10.2275 18.2692 10.2275H6.73077C6.47575 10.2275 6.23118 10.1078 6.05086 9.89468C5.87054 9.68157 5.76923 9.39252 5.76923 9.09113ZM6.73077 14.7731H18.2692C18.5242 14.7731 18.7688 14.6534 18.9491 14.4402C19.1295 14.2271 19.2308 13.9381 19.2308 13.6367C19.2308 13.3353 19.1295 13.0463 18.9491 12.8331C18.7688 12.62 18.5242 12.5003 18.2692 12.5003H6.73077C6.47575 12.5003 6.23118 12.62 6.05086 12.8331C5.87054 13.0463 5.76923 13.3353 5.76923 13.6367C5.76923 13.9381 5.87054 14.2271 6.05086 14.4402C6.23118 14.6534 6.47575 14.7731 6.73077 14.7731ZM25 2.27278V23.8642C24.9999 24.0579 24.9579 24.2483 24.8781 24.4175C24.7982 24.5866 24.6831 24.7288 24.5436 24.8305C24.4042 24.9323 24.245 24.9902 24.0813 24.9989C23.9176 25.0075 23.7547 24.9665 23.6082 24.8799L20.1923 22.8614L16.7764 24.8799C16.6429 24.9589 16.4955 25 16.3462 25C16.1968 25 16.0495 24.9589 15.9159 24.8799L12.5 22.8614L9.08413 24.8799C8.95055 24.9589 8.80322 25 8.65385 25C8.50447 25 8.35714 24.9589 8.22356 24.8799L4.80769 22.8614L1.39183 24.8799C1.24527 24.9665 1.0824 25.0075 0.918678 24.9989C0.754958 24.9902 0.595821 24.9323 0.456377 24.8305C0.316933 24.7288 0.201809 24.5866 0.121935 24.4175C0.0420607 24.2483 8.74907e-05 24.0579 0 23.8642V2.27278C0 1.67 0.202609 1.09191 0.563256 0.665682C0.923903 0.239453 1.41305 0 1.92308 0H23.0769C23.587 0 24.0761 0.239453 24.4367 0.665682C24.7974 1.09191 25 1.67 25 2.27278ZM23.0769 2.27278H1.92308V22.0261L4.3774 20.5744C4.51099 20.4954 4.65831 20.4542 4.80769 20.4542C4.95707 20.4542 5.10439 20.4954 5.23798 20.5744L8.65385 22.5943L12.0697 20.5744C12.2033 20.4954 12.3506 20.4542 12.5 20.4542C12.6494 20.4542 12.7967 20.4954 12.9303 20.5744L16.3462 22.5943L19.762 20.5744C19.8956 20.4954 20.0429 20.4542 20.1923 20.4542C20.3417 20.4542 20.489 20.4954 20.6226 20.5744L23.0769 22.0261V2.27278Z" fill="#B1B1B1"/>
</svg>
