<svg width="74" height="70" viewBox="0 0 74 70" fill="none" xmlns="http://www.w3.org/2000/svg">
<ellipse cx="37.0025" cy="35" rx="36.9094" ry="35" fill="#DCFAF8"/>
<g clip-path="url(#clip0_491_3413)">
<path d="M50.6926 34.3653H48.811C48.3827 33.2291 47.6925 32.2118 46.809 31.3801L49.711 30.1654C50.1255 29.9918 50.3526 29.5581 50.2347 29.1433C49.8847 27.9118 48.7035 27.0059 47.3002 27.0059H44.9067C43.5304 27.0059 42.3682 27.8776 41.9938 29.0729H39.466C38.5166 32.3986 35.3096 34.8522 31.5098 34.8522C29.1902 34.8522 27.0917 33.9377 25.5926 32.469C25.1704 33.0403 24.8246 33.6664 24.5697 34.3342C23.8126 34.1771 23.19 33.6092 23.016 32.8697C22.9045 32.3959 22.4087 32.0972 21.9095 32.2033C21.4099 32.3091 21.0953 32.7788 21.2068 33.2526C21.3964 34.0581 21.8734 34.7894 22.5501 35.3118C23.0132 35.6693 23.5578 35.9182 24.1348 36.043C24.0899 36.378 24.0666 36.7195 24.0666 37.066V37.9182C24.0666 41.1482 26.0777 43.9303 28.9718 45.191V47.1279C28.9718 48.182 29.873 49.0366 30.9847 49.0366C32.0963 49.0366 32.9976 48.182 32.9976 47.1279V45.9113H40.538V47.1279C40.538 48.182 41.4392 49.0366 42.5509 49.0366C43.6625 49.0366 44.5638 48.182 44.5638 47.1279V45.1165C46.6798 44.1404 48.3004 42.3424 48.9684 40.1577H50.6925C51.8681 40.1577 52.8211 39.2498 52.8211 38.1298V36.3931C52.8212 35.2732 51.8682 34.3653 50.6926 34.3653ZM43.8535 34.8727C43.3435 34.8727 42.93 34.4807 42.93 33.997C42.93 33.5133 43.3434 33.1213 43.8535 33.1213C44.3636 33.1213 44.777 33.5133 44.777 33.997C44.777 34.4807 44.3636 34.8727 43.8535 34.8727Z" fill="#16DBCC"/>
<path d="M31.5099 20.9634C27.9872 20.9634 25.1213 23.6844 25.1213 27.0289C25.1213 30.3734 27.9872 33.0944 31.5099 33.0944C35.0326 33.0944 37.8985 30.3734 37.8985 27.0289C37.8985 23.6842 35.0325 20.9634 31.5099 20.9634ZM30.9167 26.1021H32.1032C33.4416 26.1021 34.5304 27.1353 34.5304 28.4053C34.5304 29.5678 33.6178 30.5314 32.4368 30.6862V31.0163C32.4368 31.5017 32.0218 31.8953 31.5099 31.8953C30.9981 31.8953 30.5831 31.5017 30.5831 31.0163V30.7085H30.3466C29.3226 30.7085 28.4894 29.9181 28.4894 28.9465C28.4894 28.4611 28.9044 28.0675 29.4163 28.0675C29.9282 28.0675 30.3431 28.4611 30.3431 28.9465L32.1031 28.9507C32.4194 28.9507 32.6766 28.706 32.6766 28.4053C32.6766 28.1046 32.4194 27.8599 32.1031 27.8599H30.9166C29.5782 27.8599 28.4894 26.8267 28.4894 25.5567C28.4894 24.3941 29.402 23.4305 30.5831 23.2757V23.0414C30.5831 22.556 30.9981 22.1625 31.5099 22.1625C32.0218 22.1625 32.4368 22.556 32.4368 23.0414V23.2534H32.6732C33.6972 23.2534 34.5304 24.0439 34.5304 25.0155C34.5304 25.5009 34.1154 25.8944 33.6035 25.8944C33.0917 25.8944 32.6767 25.5009 32.6767 25.0155C32.6767 25.0141 32.6765 25.0135 32.6765 25.0135L30.9167 25.0112C30.6004 25.0112 30.3432 25.2559 30.3432 25.5567C30.3432 25.8574 30.6004 26.1021 30.9167 26.1021Z" fill="#16DBCC"/>
</g>
<defs>
<clipPath id="clip0_491_3413">
<rect width="31.6367" height="30" fill="white" transform="translate(21.1843 20)"/>
</clipPath>
</defs>
</svg>
