<svg width="25" height="26" viewBox="0 0 25 26" fill="none" xmlns="http://www.w3.org/2000/svg">
<path id="Vector" d="M9.82143 9.5C9.82143 9.22373 9.9155 8.95878 10.0829 8.76343C10.2504 8.56808 10.4775 8.45833 10.7143 8.45833H17.8571C18.0939 8.45833 18.321 8.56808 18.4885 8.76343C18.6559 8.95878 18.75 9.22373 18.75 9.5C18.75 9.77627 18.6559 10.0412 18.4885 10.2366C18.321 10.4319 18.0939 10.5417 17.8571 10.5417H10.7143C10.4775 10.5417 10.2504 10.4319 10.0829 10.2366C9.9155 10.0412 9.82143 9.77627 9.82143 9.5ZM10.7143 14.7083H17.8571C18.0939 14.7083 18.321 14.5986 18.4885 14.4032C18.6559 14.2079 18.75 13.9429 18.75 13.6667C18.75 13.3904 18.6559 13.1254 18.4885 12.9301C18.321 12.7347 18.0939 12.625 17.8571 12.625H10.7143C10.4775 12.625 10.2504 12.7347 10.0829 12.9301C9.9155 13.1254 9.82143 13.3904 9.82143 13.6667C9.82143 13.9429 9.9155 14.2079 10.0829 14.4032C10.2504 14.5986 10.4775 14.7083 10.7143 14.7083ZM25 20.9583C25 22.0634 24.6237 23.1232 23.954 23.9046C23.2842 24.686 22.3758 25.125 21.4286 25.125H8.92857C7.98137 25.125 7.07296 24.686 6.40319 23.9046C5.73342 23.1232 5.35714 22.0634 5.35714 20.9583V4.29167C5.35714 3.73913 5.16901 3.20923 4.83412 2.81853C4.49923 2.42783 4.04503 2.20833 3.57143 2.20833C3.09783 2.20833 2.64362 2.42783 2.30874 2.81853C1.97385 3.20923 1.78571 3.73913 1.78571 4.29167C1.78571 5.03906 2.32478 5.54427 2.33036 5.54948C2.47813 5.68215 2.58659 5.86546 2.64052 6.0737C2.69445 6.28194 2.69115 6.50465 2.63108 6.71059C2.57101 6.91652 2.45719 7.09536 2.30557 7.22199C2.15396 7.34862 1.97217 7.41669 1.78571 7.41667C1.59263 7.41706 1.4048 7.3434 1.25112 7.20703C1.12165 7.09635 0 6.0638 0 4.29167C0 3.1866 0.376275 2.12679 1.04605 1.34539C1.71582 0.563987 2.62423 0.125 3.57143 0.125H18.75C19.6972 0.125 20.6056 0.563987 21.2754 1.34539C21.9452 2.12679 22.3214 3.1866 22.3214 4.29167V17.8333H23.2143C23.4075 17.8333 23.5955 17.9064 23.75 18.0417C23.8839 18.1536 25 19.1862 25 20.9583ZM9.85045 18.5469C9.91145 18.3368 10.0279 18.1546 10.183 18.0264C10.3382 17.8983 10.5242 17.8307 10.7143 17.8333H20.5357V4.29167C20.5357 3.73913 20.3476 3.20923 20.0127 2.81853C19.6778 2.42783 19.2236 2.20833 18.75 2.20833H6.66183C6.97761 2.84076 7.14362 3.55976 7.14286 4.29167V20.9583C7.14286 21.5109 7.331 22.0408 7.66588 22.4315C8.00077 22.8222 8.45497 23.0417 8.92857 23.0417C9.40217 23.0417 9.85638 22.8222 10.1913 22.4315C10.5261 22.0408 10.7143 21.5109 10.7143 20.9583C10.7143 20.2109 10.1752 19.7057 10.1696 19.7005C10.0175 19.5735 9.90432 19.3929 9.84685 19.1852C9.78938 18.9774 9.79064 18.7537 9.85045 18.5469ZM23.2143 20.9583C23.2031 20.5724 23.0754 20.2035 22.8538 19.9167H12.3627C12.4525 20.254 12.498 20.6052 12.4978 20.9583C12.4986 21.6899 12.3334 22.4087 12.019 23.0417H21.4286C21.9022 23.0417 22.3564 22.8222 22.6913 22.4315C23.0261 22.0408 23.2143 21.5109 23.2143 20.9583Z" fill="#B1B1B1"/>
</svg>
